<svg width="200" height="200" viewBox="0 0 200 200" fill="none" xmlns="http://www.w3.org/2000/svg">
<rect width="200" height="200" rx="10" fill="white"/>
<path d="M67.088 110.456C67.088 107.469 67.4293 104.547 68.112 101.688C68.8373 98.7867 69.84 96.056 71.12 93.496C72.4 90.8933 73.9147 88.5253 75.664 86.392C77.456 84.216 79.3973 82.3387 81.488 80.76C83.6213 79.1813 85.8827 77.9653 88.272 77.112C90.6613 76.216 93.1147 75.768 95.632 75.768C98.576 75.768 100.859 76.3867 102.48 77.624C104.144 78.8613 104.976 80.5893 104.976 82.808C104.976 83.6613 104.848 84.536 104.592 85.432C104.379 86.328 104.037 87.224 103.568 88.12C103.141 88.9733 102.629 89.8053 102.032 90.616C101.435 91.4267 100.773 92.1307 100.048 92.728C98.9387 92.5573 97.9787 92.0667 97.168 91.256C96.3573 90.4027 95.8453 89.4213 95.632 88.312C97.1253 87.0747 98.2987 85.7947 99.152 84.472C100.048 83.1067 100.496 81.8693 100.496 80.76C100.496 78.8827 99.3227 77.944 96.976 77.944C95.9947 77.944 94.9707 78.1573 93.904 78.584C92.88 78.968 91.8347 79.5227 90.768 80.248C89.7013 80.9733 88.656 81.848 87.632 82.872C86.6507 83.896 85.7333 85.0267 84.88 86.264C78.9493 94.7973 75.984 103.523 75.984 112.44C75.984 115.597 76.4747 118.136 77.456 120.056C78.4373 121.976 79.7387 123.107 81.36 123.448C83.1947 123.021 85.52 121.848 88.336 119.928C91.152 118.008 94.224 115.512 97.552 112.44C97.9787 112.867 98.2347 113.315 98.32 113.784C97.0827 115.405 95.8027 116.963 94.48 118.456C93.1573 119.949 91.8347 121.315 90.512 122.552C89.232 123.789 87.952 124.877 86.672 125.816C85.4347 126.755 84.2827 127.48 83.216 127.992C77.9253 127.907 73.9147 126.392 71.184 123.448C68.4533 120.504 67.088 116.173 67.088 110.456ZM108.785 127.864C106.353 127.139 104.71 126.435 103.857 125.752C103.004 125.112 102.577 124.216 102.577 123.064C102.577 121.784 102.876 119.992 103.473 117.688C104.07 115.341 104.838 112.739 105.777 109.88C106.758 107.021 107.868 104.035 109.105 100.92C110.342 97.8053 111.601 94.8187 112.881 91.96C114.161 89.1013 115.398 86.4987 116.593 84.152C117.83 81.7627 118.918 79.9067 119.857 78.584L119.409 75.896C120.006 75.896 120.838 76.0453 121.905 76.344C122.972 76.6427 124.038 77.0053 125.105 77.432C126.214 77.8587 127.174 78.3067 127.985 78.776C128.838 79.2027 129.308 79.5653 129.393 79.864C129.18 80.888 129.009 82.4453 128.881 84.536C128.753 86.584 128.689 88.7813 128.689 91.128C128.689 95.7787 128.86 100.344 129.201 104.824C129.585 109.261 130.438 113.784 131.761 118.392C132.444 114.979 133.169 111.587 133.937 108.216C134.748 104.803 135.58 101.56 136.433 98.488C137.286 95.3733 138.14 92.4933 138.993 89.848C139.846 87.2027 140.657 84.8987 141.425 82.936C142.236 80.9307 142.982 79.3733 143.665 78.264C144.348 77.112 144.966 76.4933 145.521 76.408C145.99 76.4933 146.502 76.6853 147.057 76.984C147.612 77.24 148.145 77.56 148.657 77.944C149.169 78.328 149.638 78.7547 150.065 79.224C150.492 79.6933 150.833 80.1627 151.089 80.632C149.724 81.1867 148.358 82.488 146.993 84.536C145.67 86.584 144.39 89.08 143.153 92.024C141.958 94.9253 140.828 98.0827 139.761 101.496C138.737 104.909 137.82 108.28 137.009 111.608C136.241 114.893 135.622 117.944 135.153 120.76C134.726 123.576 134.492 125.837 134.449 127.544C134.449 127.629 134.47 127.693 134.513 127.736C134.385 127.779 134.236 127.8 134.065 127.8C133.937 127.8 133.809 127.8 133.681 127.8C131.718 127.8 129.969 127.544 128.433 127.032C126.94 126.563 125.958 125.88 125.489 124.984C124.593 121.4 123.846 117.944 123.249 114.616C122.652 111.288 122.14 107.96 121.713 104.632C121.329 101.304 121.009 97.9547 120.753 94.584C120.54 91.1707 120.369 87.608 120.241 83.896C119.43 85.176 118.577 86.8613 117.681 88.952C116.785 91 115.91 93.2613 115.057 95.736C114.204 98.2107 113.372 100.813 112.561 103.544C111.793 106.275 111.11 108.941 110.513 111.544C109.916 114.147 109.446 116.621 109.105 118.968C108.764 121.272 108.593 123.277 108.593 124.984C108.593 125.88 108.593 126.52 108.593 126.904C108.636 127.288 108.7 127.608 108.785 127.864Z" fill="#292929"/>
</svg>
